<svg xmlns="http://www.w3.org/2000/svg" width="20" height="20" viewBox="0 0 20 20">
  <g id="vuesax_bold_receive-square" data-name="vuesax/bold/receive-square" transform="translate(-748 -380)">
    <g id="receive-square" transform="translate(748 380)">
      <path id="Vector" d="M0,0H20V20H0Z" fill="none" opacity="0"/>
      <path id="Vector-2" data-name="Vector" d="M11.825,0H4.842A4.447,4.447,0,0,0,0,4.842v6.975a4.45,4.45,0,0,0,4.842,4.85h6.975a4.447,4.447,0,0,0,4.842-4.842V4.842A4.437,4.437,0,0,0,11.825,0ZM5.392,7.483a.629.629,0,0,1,.883,0L7.708,8.917V3.758a.625.625,0,0,1,1.25,0V8.917l1.433-1.433a.625.625,0,0,1,.883.883l-2.5,2.5a.647.647,0,0,1-.2.133.6.6,0,0,1-.242.05A.628.628,0,0,1,8.092,11a.647.647,0,0,1-.2-.133l-2.5-2.5A.629.629,0,0,1,5.392,7.483Zm8.142,5.2a16.453,16.453,0,0,1-5.2.842,16.453,16.453,0,0,1-5.2-.842.628.628,0,0,1-.392-.792.618.618,0,0,1,.792-.392,15.278,15.278,0,0,0,9.608,0,.628.628,0,0,1,.792.392A.636.636,0,0,1,13.533,12.683Z" transform="translate(1.667 1.667)" fill="#f9b123"/>
    </g>
  </g>
</svg>
